<svg xmlns="http://www.w3.org/2000/svg" xmlns:xlink="http://www.w3.org/1999/xlink" id="图层_1" width="32" height="32" x="0" y="0" enable-background="new 0 0 32 32" version="1.1" viewBox="0 0 32 32" xml:space="preserve"><g id="bk"><g><g><line x1="3" x2="3" y1="5.073" y2="29.375" fill="none" stroke="#000" stroke-linecap="round" stroke-miterlimit="10"/></g></g><g><g><line x1="3" x2="27.177" y1="29.375" y2="29.375" fill="none" stroke="#000" stroke-linecap="round" stroke-miterlimit="10"/></g></g></g><g id="Fit"><ellipse cx="6.186" cy="22.347" fill="#F41137" rx=".96" ry=".951"/><ellipse cx="24.895" cy="23.298" fill="#F41137" rx=".959" ry=".951"/><ellipse cx="9.203" cy="18.542" fill="#F41137" rx=".96" ry=".951"/><ellipse cx="24.895" cy="20.444" fill="#F41137" rx=".961" ry=".951"/><ellipse cx="15.471" cy="10.562" fill="#5A4FED" rx=".96" ry=".951"/><ellipse cx="20.271" cy="17.492" fill="#F41137" rx=".959" ry=".951"/><ellipse cx="12.083" cy="20.445" fill="#F41137" rx=".96" ry=".951"/></g><line x1="13.25" x2="17.75" y1="7.917" y2="13.25" fill="none" stroke="#192BD8" stroke-miterlimit="10"/><line x1="17.93" x2="12.415" y1="8.491" y2="13.242" fill="none" stroke="#192BD8" stroke-miterlimit="10"/><path fill="none" stroke="#000" stroke-miterlimit="10" d="M6.583,22.954c2.167-2.853,2.62-3.134,4.083-3.804	c2.415-1.105,6.063-1.095,7.75-0.409c1.854,0.753,3.583,1.886,4.416,3.262"/></svg>