<svg xmlns="http://www.w3.org/2000/svg" xmlns:xlink="http://www.w3.org/1999/xlink" id="图层_1" width="32" height="32" x="0" y="0" enable-background="new 0 0 32 32" version="1.1" viewBox="0 0 32 32" xml:space="preserve"><g id="bk"><g><g><line x1="3" x2="3" y1="5.073" y2="29.375" fill="none" stroke="#000" stroke-linecap="round" stroke-miterlimit="10"/></g></g><g><g><line x1="3" x2="27.177" y1="29.375" y2="29.375" fill="none" stroke="#000" stroke-linecap="round" stroke-miterlimit="10"/><g><path d="M30.438,29.376c-0.817,0.181-1.638,0.36-2.455,0.54l-2.352,0.934l-0.049-0.023l0.877-1.451l-0.877-1.441l0.049-0.031"/></g></g></g></g><g id="FFT"><path fill="none" stroke="#E60012" stroke-linecap="round" stroke-linejoin="round" stroke-miterlimit="10" d="M4.167,27.584 C5.5,26.334,6.083,26,6.083,26l0.5,2.167l1.833-4.833L10,28.167l1.333-2.417l0.917,2l0.917-13.5l0.917,13.25L16,25.334l0.719,2.083 l1.448-4.833l0.5,5.083l1.5-1.75v1.833l1.666-1.416l0.917,1.25l0.667-18.5l0.833,18l1.25-1.417L26.333,27"/><rect width="26.583" height="15.667" x="8.417" fill="none"/><text font-family="'ArialMT'" font-size="12" transform="matrix(1 0 0 1 8.416 12.3203)">FFT</text></g></svg>