<svg xmlns="http://www.w3.org/2000/svg" xmlns:xlink="http://www.w3.org/1999/xlink" width="200" height="200" class="icon" p-id="2491" t="1495960097620" version="1.1" viewBox="0 0 1024 1024"><defs><style type="text/css"/></defs><path fill="#819292" d="M101.085 885.391V100.05H64.012v828.169h895.769v-42.828z" p-id="2492"/><path fill="#D73949" d="M206.022 747.816H180.15v10.707h25.872v0.324h9.268v-0.324h25.872v-10.707H215.29v-48.942h79.358V496.906l-79.358-0.612v-50.401h25.872v-10.707H180.15v10.707h25.872v50.329l-79.358-0.612v203.264h79.358v48.942zM145.2 517.167l130.911 1.011V677.46H145.2V517.167z" p-id="2493"/><path fill="#0CA294" d="M415.013 456.228h-25.872v10.707h25.872v0.324h9.268v-0.324h25.872v-10.707h-25.872v-49.267h79.358V269.13l-79.358-0.395v-50.183h25.872v-10.707h-61.012v10.707h25.872v50.137l-79.358-0.395v138.667h79.358v49.267z m-60.822-166.429l130.911 0.652v95.096H354.191v-95.748z" p-id="2494"/><path fill="#3796C7" d="M622.159 750.814h9.268v10.511h79.357V431.609l-79.357-1.046v15.33h-9.268v-15.452l-79.358-1.046v331.929h79.358v-10.51z m-70.09-103.993h9.268V451.055l130.911 1.726v194.041h9.268v21.414h-9.268v71.676H561.337v-71.676h-9.268v-21.415z" p-id="2495"/><path fill="#35A0D6" d="M631.427 445.893v-87.456h25.871V347.73h-61.012v10.707h25.873v87.456zM622.159 750.814v59.452h-25.873v10.707h25.873v0.324h9.268v-0.324h25.871v-10.707h-25.871v-59.452z" p-id="2496"/><path fill="#D07727" d="M824.67 436.674h9.268v6.051h79.358V339.758l-79.358-0.277v11.199h-9.268v-11.232l-79.357-0.277v103.552h79.357v-6.049z m-60.821-76.023l130.911 0.456v60.203H763.849v-60.659z" p-id="2497"/><path fill="#D97B24" d="M833.938 350.68V289.416h25.872v-10.707h-61.012v10.707h25.872v61.264zM824.67 436.674V591.339h-25.872v10.707h25.872v0.324h9.268v-0.324h25.872v-10.707h-25.872V436.674z" p-id="2498"/><path fill="#35A0D6" d="M692.248 668.235h9.268v-21.414H552.069v21.414h9.268z" p-id="2499"/></svg>