<svg xmlns="http://www.w3.org/2000/svg" xmlns:xlink="http://www.w3.org/1999/xlink" width="200" height="200" class="icon" p-id="1895" t="1495960065166" version="1.1" viewBox="0 0 1024 1024"><defs><style type="text/css"/></defs><path fill="#819292" d="M102.144 829.347V138.898H65.196V867h892.761v-37.653z" p-id="1896"/><path fill="#D73949" d="M145.123 612.601a81.241 82.791 0 1 0 162.482 0 81.241 82.791 0 1 0-162.482 0Z" p-id="1897"/><path fill="#D97B24" d="M496.785 388.052a56.717 57.799 0 1 0 113.434 0 56.717 57.799 0 1 0-113.434 0Z" p-id="1898"/><path fill="#159A8D" d="M737.424 659.407a64.265 65.49 0 1 0 128.53 0 64.265 65.49 0 1 0-128.53 0Z" p-id="1899"/><path fill="#D97B24" d="M124.725 760.992a33.781 34.425 0 1 0 67.562 0 33.781 34.425 0 1 0-67.562 0Z" p-id="1900"/><path fill="#D97B24" d="M879.08 492.517a16.933 17.256 0 1 0 33.866 0 16.933 17.256 0 1 0-33.866 0Z" p-id="1901"/><path fill="#D73949" d="M762.198 467.09a19.421 19.792 0 1 0 38.842 0 19.421 19.792 0 1 0-38.842 0Z" p-id="1902"/><path fill="#D73949" d="M337.483 314.74a25.036 25.513 0 1 0 50.072 0 25.036 25.513 0 1 0-50.072 0Z" p-id="1903"/><path fill="#D73949" d="M611.021 540.75a23.252 23.696 0 1 0 46.504 0 23.252 23.696 0 1 0-46.504 0Z" p-id="1904"/><path fill="#159A8D" d="M396.03 539.646a22.456 22.885 0 1 0 44.912 0 22.456 22.885 0 1 0-44.912 0Z" p-id="1905"/><path fill="#159A8D" d="M314.482 427.419a18.014 18.358 0 1 0 36.028 0 18.014 18.358 0 1 0-36.028 0Z" p-id="1906"/><path fill="#D73949" d="M503.88 643.797a16.933 17.256 0 1 0 33.866 0 16.933 17.256 0 1 0-33.866 0Z" p-id="1907"/></svg>